<svg xmlns="http://www.w3.org/2000/svg" width="188.732" height="35" viewBox="0 0 188.732 35"><g transform="translate(-632.268 -394.823)"><g transform="translate(634.981 393.508)"><path d="M7.567-.422c5.026.332,9.5,7.432,10,15.859S14.4,30.426,9.37,30.094s-9.5-7.432-10-15.859S2.542-.754,7.567-.422Z" transform="matrix(0.643, 0.766, -0.766, 0.643, 20.784, 2.782)" fill="#f8599d"/><path d="M11.077.7c5.026-.332,8.7,6.23,8.2,14.657s-4.975,15.527-10,15.859-8.7-6.23-8.2-14.657S6.051,1.034,11.077.7Z" transform="matrix(0.643, -0.766, 0.766, 0.643, 7.953, 16.55)" fill="#5997f9" opacity="0.9"/></g><text transform="translate(681 420.823)" font-size="25" font-family="Poppins-Medium, Poppins" font-weight="500"><tspan x="0" y="0">creditlocus</tspan></text></g></svg>