<?xml version="1.0" standalone="no"?>
<!DOCTYPE svg PUBLIC "-//W3C//DTD SVG 20010904//EN"
 "http://www.w3.org/TR/2001/REC-SVG-20010904/DTD/svg10.dtd">
<svg version="1.0" xmlns="http://www.w3.org/2000/svg"
 width="165.000000pt" height="165.000000pt" viewBox="0 0 165.000000 165.000000"
 preserveAspectRatio="xMidYMid meet">
<metadata>
Created by potrace 1.11, written by Peter Selinger 2001-2013
</metadata>
<g transform="translate(0.000000,165.000000) scale(0.100000,-0.100000)"
fill="#000000" stroke="none">
<path d="M714 1291 c-73 -21 -214 -90 -221 -108 -3 -7 -11 -13 -19 -13 -8 0
-19 -9 -26 -20 -7 -11 -19 -20 -26 -20 -7 0 -10 -4 -7 -10 3 -5 2 -10 -4 -10
-17 0 -51 -42 -44 -54 3 -6 2 -8 -2 -4 -12 12 -67 -54 -60 -71 3 -9 3 -12 -1
-9 -3 4 -12 1 -19 -6 -17 -17 -58 -104 -58 -122 0 -8 -3 -14 -7 -14 -13 0 -33
-108 -33 -175 0 -54 7 -83 27 -128 15 -32 31 -55 37 -52 5 4 8 1 7 -7 -2 -7 3
-12 10 -10 8 1 11 -2 8 -7 -12 -18 61 -58 147 -80 27 -7 37 -6 37 2 0 8 3 8 8
2 4 -6 18 -9 32 -7 14 1 38 2 53 2 19 0 26 3 21 11 -4 8 -3 9 4 5 7 -4 17 -4
24 0 7 4 22 9 34 10 18 2 95 39 168 81 14 9 24 9 33 1 7 -6 13 -7 13 -2 0 4 6
0 13 -9 17 -23 136 -80 153 -73 9 3 12 1 9 -4 -5 -9 28 -14 73 -13 6 1 12 -3
12 -8 0 -4 30 -7 68 -5 69 4 156 31 146 47 -3 5 1 6 9 3 21 -8 89 75 111 135
23 65 22 213 -2 231 -4 3 -7 11 -8 18 -3 39 -5 43 -16 36 -7 -4 -8 -3 -4 4 8
13 -23 90 -46 113 -9 8 -22 28 -31 44 -25 49 -113 139 -127 130 -8 -5 -11 -4
-7 2 6 10 -38 50 -88 80 -40 25 -161 80 -190 87 -61 16 -150 14 -211 -3z
m-223 -278 c13 -16 12 -17 -3 -4 -10 7 -18 15 -18 17 0 8 8 3 21 -13z m-121
-319 c0 -8 -19 -13 -24 -6 -3 5 1 9 9 9 8 0 15 -2 15 -3z m1011 -217 c-10 -9
-11 -8 -5 6 3 10 9 15 12 12 3 -3 0 -11 -7 -18z m-361 -23 c0 -8 -19 -13 -24
-6 -3 5 1 9 9 9 8 0 15 -2 15 -3z m225 -52 c-3 -3 -11 0 -18 7 -9 10 -8 11 6
5 10 -3 15 -9 12 -12z"/>
</g>
</svg>
