<?xml version="1.0" standalone="no"?>
<!DOCTYPE svg PUBLIC "-//W3C//DTD SVG 20010904//EN"
 "http://www.w3.org/TR/2001/REC-SVG-20010904/DTD/svg10.dtd">
<svg version="1.0" xmlns="http://www.w3.org/2000/svg"
 width="118.000000pt" height="118.000000pt" viewBox="0 0 118.000000 118.000000"
 preserveAspectRatio="xMidYMid meet">
<metadata>
Created by potrace 1.11, written by Peter Selinger 2001-2013
</metadata>
<g transform="translate(0.000000,118.000000) scale(0.100000,-0.100000)"
fill="#000000" stroke="none">
<path d="M485 901 c-114 -73 -200 -174 -264 -312 -43 -92 -65 -181 -58 -232
14 -107 80 -137 186 -87 66 32 158 116 207 190 15 22 30 40 34 40 4 0 15 -12
25 -26 77 -117 215 -224 290 -224 116 0 137 144 49 340 -31 68 -79 140 -90
136 -7 -3 -10 2 -7 13 6 23 -132 152 -193 180 -66 32 -109 27 -179 -18z"/>
</g>
</svg>
