<?xml version="1.0" standalone="no"?>
<!DOCTYPE svg PUBLIC "-//W3C//DTD SVG 20010904//EN"
 "http://www.w3.org/TR/2001/REC-SVG-20010904/DTD/svg10.dtd">
<svg version="1.0" xmlns="http://www.w3.org/2000/svg"
 width="108.000000pt" height="108.000000pt" viewBox="0 0 108.000000 108.000000"
 preserveAspectRatio="xMidYMid meet">
<metadata>
Created by potrace 1.11, written by Peter Selinger 2001-2013
</metadata>
<g transform="translate(0.000000,108.000000) scale(0.100000,-0.100000)"
fill="#000000" stroke="none">
<path d="M463 885 c-200 -87 -399 -343 -411 -529 -9 -144 61 -200 194 -155 75
25 130 63 218 151 72 71 80 77 92 61 7 -10 14 -21 14 -25 0 -4 9 -10 20 -13
11 -3 20 -11 20 -17 0 -23 122 -117 195 -149 71 -32 201 -22 179 13 -4 7 -3 8
4 4 31 -19 50 112 26 190 -56 188 -208 370 -382 458 -58 29 -118 33 -169 11z"/>
</g>
</svg>
